# xmcd CD database file
#
# Track frame offsets:
#	150
#	15845
#	31622
#	45520
#	75169
#	91666
#	109616
#	134217
#	156583
#	171402
#
# Disc length: 2607 seconds
#
# Revision: 3
# Processed by: cddbd v1.5.1PL0 Copyright (c) Steve Scherf et al.
# Submitted via: CDex 1.51
#
DISCID=6a0a2d0a
DTITLE=Mike Andersen Band - My love for the blues
DYEAR=2002
DGENRE=Blues
TTITLE0=Who's cheating who
TTITLE1=Right now it hurts
TTITLE2=Yield not to temptation
TTITLE3=How do you sleep at night
TTITLE4=I was wrong
TTITLE5=Who will the next fool be
TTITLE6=I believe
TTITLE7=Jealousy and disbelief
TTITLE8=(I know) You don't love me
TTITLE9=My love for the blues
EXTD=YEAR: 2002
EXTT0=
EXTT1=
EXTT2=
EXTT3=
EXTT4=
EXTT5=
EXTT6=
EXTT7=
EXTT8=
EXTT9=
PLAYORDER=
